<svg width="100%" height="100%" id="svg" viewBox="0 0 1440 700" xmlns="http://www.w3.org/2000/svg" class="transition duration-300 ease-in-out delay-150"><defs><linearGradient id="gradient" x1="36%" y1="2%" x2="64%" y2="98%"><stop offset="5%" stop-color="#abb8c344"></stop><stop offset="95%" stop-color="#00000044"></stop></linearGradient></defs><path d="M 0,700 C 0,700 0,140 0,140 C 205.71428571428572,180 822.8571428571429,160 1440,140 C 1440,140 1440,700 1440,700 Z" stroke="none" stroke-width="0" fill="url(#gradient)" class="transition-all duration-300 ease-in-out delay-150 path-0" transform="rotate(-180 720 350)"></path><defs><linearGradient id="gradient" x1="36%" y1="2%" x2="64%" y2="98%"><stop offset="5%" stop-color="#abb8c366"></stop><stop offset="95%" stop-color="#00000066"></stop></linearGradient></defs><path d="M 0,700 C 0,700 0,280 0,280 C 205.71428571428572,360 822.8571428571429,320 1440,280 C 1440,280 1440,700 1440,700 Z" stroke="none" stroke-width="0" fill="url(#gradient)" class="transition-all duration-300 ease-in-out delay-150 path-1" transform="rotate(-180 720 350)"></path><defs><linearGradient id="gradient" x1="36%" y1="2%" x2="64%" y2="98%"><stop offset="5%" stop-color="#abb8c388"></stop><stop offset="95%" stop-color="#00000088"></stop></linearGradient></defs><path d="M 0,700 C 0,700 0,420 0,420 C 205.71428571428572,540 822.8571428571429,480 1440,420 C 1440,420 1440,700 1440,700 Z" stroke="none" stroke-width="0" fill="url(#gradient)" class="transition-all duration-300 ease-in-out delay-150 path-2" transform="rotate(-180 720 350)"></path><defs><linearGradient id="gradient" x1="36%" y1="2%" x2="64%" y2="98%"><stop offset="5%" stop-color="#abb8c3ff"></stop><stop offset="95%" stop-color="#000000ff"></stop></linearGradient></defs><path d="M 0,700 C 0,700 0,560 0,560 C 205.71428571428572,720 822.8571428571429,640 1440,560 C 1440,560 1440,700 1440,700 Z" stroke="none" stroke-width="0" fill="url(#gradient)" class="transition-all duration-300 ease-in-out delay-150 path-3" transform="rotate(-180 720 350)"></path></svg>