<?xml version="1.0" encoding="iso-8859-1"?>
<!-- Generator: Adobe Illustrator 19.0.0, SVG Export Plug-In . SVG Version: 6.00 Build 0)  -->
<svg version="1.1" id="Layer_1" xmlns="http://www.w3.org/2000/svg" xmlns:xlink="http://www.w3.org/1999/xlink" x="0px" y="0px"
	 viewBox="0 0 512 512" style="enable-background:new 0 0 512 512;" xml:space="preserve">
<rect x="20.572" y="74.944" style="fill:#D8D8DA;" width="470.853" height="189.663"/>
<rect x="20.572" y="298.508" style="fill:#ABAAAE;" width="470.853" height="189.663"/>
<g>
	<rect x="239.313" y="67.236" style="fill:#3E3D41;" width="33.368" height="197.371"/>
	<rect x="161.455" y="67.236" style="fill:#3E3D41;" width="33.368" height="197.371"/>
	<rect x="80.26" y="67.236" style="fill:#3E3D41;" width="33.368" height="197.371"/>
	<rect x="398.367" y="67.236" style="fill:#3E3D41;" width="33.368" height="197.371"/>
	<rect x="320.508" y="67.236" style="fill:#3E3D41;" width="33.368" height="197.371"/>
	<rect x="239.313" y="297.941" style="fill:#3E3D41;" width="33.368" height="197.371"/>
	<rect x="161.455" y="297.941" style="fill:#3E3D41;" width="33.368" height="197.371"/>
	<rect x="80.26" y="297.941" style="fill:#3E3D41;" width="33.368" height="197.371"/>
	<rect x="398.367" y="297.941" style="fill:#3E3D41;" width="33.368" height="197.371"/>
	<rect x="320.508" y="297.941" style="fill:#3E3D41;" width="33.368" height="197.371"/>
</g>
<g>
	<path style="fill:#333236;" d="M116.133,169.34H77.204c-4.453,0-8.064-3.61-8.064-8.064V73.964c0-4.453,3.61-8.064,8.064-8.064
		h38.929c4.453,0,8.064,3.61,8.064,8.064v87.312C124.197,165.73,120.586,169.34,116.133,169.34z"/>
	<path style="fill:#333236;" d="M197.606,169.34h-38.929c-4.453,0-8.064-3.61-8.064-8.064V73.964c0-4.453,3.61-8.064,8.064-8.064
		h38.929c4.453,0,8.064,3.61,8.064,8.064v87.312C205.67,165.73,202.059,169.34,197.606,169.34z"/>
	<path style="fill:#333236;" d="M356.659,169.34H317.73c-4.453,0-8.064-3.61-8.064-8.064V73.964c0-4.453,3.61-8.064,8.064-8.064
		h38.929c4.453,0,8.064,3.61,8.064,8.064v87.312C364.723,165.73,361.112,169.34,356.659,169.34z"/>
	<path style="fill:#333236;" d="M197.606,400.052h-38.929c-4.453,0-8.064-3.61-8.064-8.064v-87.312c0-4.453,3.61-8.064,8.064-8.064
		h38.929c4.453,0,8.064,3.61,8.064,8.064v87.312C205.67,396.442,202.059,400.052,197.606,400.052z"/>
	<path style="fill:#333236;" d="M283.528,391.988c0,4.453-3.61,8.064-8.064,8.064h-38.929c-4.453,0-8.064-3.61-8.064-8.064v-87.312
		c0-4.453,3.61-8.064,8.064-8.064h38.929c4.453,0,8.064,3.61,8.064,8.064V391.988z"/>
	<path style="fill:#333236;" d="M442.581,391.988c0,4.453-3.61,8.064-8.064,8.064h-38.929c-4.453,0-8.064-3.61-8.064-8.064v-87.312
		c0-4.453,3.61-8.064,8.064-8.064h38.929c4.453,0,8.064,3.61,8.064,8.064V391.988z"/>
</g>
<path style="fill:#C52600;" d="M477.558,512H34.442c-18.604,0-33.738-15.134-33.738-33.738V278.539h510.594v199.723
	C511.297,496.866,496.162,512,477.558,512z M34.07,311.907v166.355c0,0.205,0.166,0.37,0.37,0.37h443.118
	c0.205,0,0.37-0.166,0.37-0.37V311.907H34.07z"/>
<path style="fill:#F64D16;" d="M477.558,0H34.442C15.838,0,0.702,15.135,0.702,33.739v247.549h510.594V33.739
	C511.297,15.135,496.162,0,477.558,0z M34.07,247.921V83.919h443.859v164.002L34.07,247.921L34.07,247.921z"/>
<circle style="fill:#E6C017;" cx="51.904" cy="40.164" r="17.236"/>
<circle style="fill:#2F6EAF;" cx="116.509" cy="40.164" r="17.236"/>
<circle style="fill:#7E0014;" cx="181.109" cy="40.164" r="17.236"/>
<circle style="fill:#296099;" cx="245.709" cy="40.164" r="17.236"/>
<g>
</g>
<g>
</g>
<g>
</g>
<g>
</g>
<g>
</g>
<g>
</g>
<g>
</g>
<g>
</g>
<g>
</g>
<g>
</g>
<g>
</g>
<g>
</g>
<g>
</g>
<g>
</g>
<g>
</g>
</svg>
